<svg width="242" height="73" viewBox="0 0 242 73" fill="none" xmlns="http://www.w3.org/2000/svg">
<path d="M25.9072 60.1631C22.4271 60.1631 19.2564 61.6324 17.0137 64.0296C17.6324 64.4936 18.1737 64.9576 18.6377 65.3443C20.4938 63.4883 23.0458 62.251 25.9072 62.251C31.398 62.251 35.8835 66.6589 36.0381 72.072C36.6568 72.072 37.3528 72.072 38.1262 71.9947C37.8942 65.4216 32.4807 60.1631 25.9072 60.1631Z" fill="white"/>
<path d="M25.908 66.1176C24.3613 66.1176 23.0466 66.6589 21.9639 67.5869C22.5825 67.9735 23.2012 68.3602 23.8972 68.7468C24.5159 68.4375 25.2119 68.2055 25.908 68.2055C27.8413 68.2055 29.4654 69.5201 29.9294 71.2987C30.6254 71.4534 31.3988 71.6854 32.0948 71.7627C31.7854 68.5922 29.156 66.1176 25.908 66.1176Z" fill="white"/>
<path d="M25.9081 53.5127C20.4946 53.5127 15.6998 55.7553 12.2197 59.3898C12.6837 59.9311 13.1477 60.4724 13.6891 60.9364C16.7825 57.6885 21.1133 55.6006 25.9081 55.6006C34.6469 55.6006 41.9165 62.4057 42.6125 70.9894C43.3085 70.6801 44.0045 70.2934 44.5459 69.7521C43.2312 60.6271 35.4203 53.5127 25.9081 53.5127Z" fill="white"/>
<path d="M25.9073 47.3263C19.1791 47.3263 12.9923 50.0328 8.50684 54.3633C8.89351 54.982 9.28019 55.6006 9.66686 56.1419C13.843 51.9661 19.5658 49.4142 25.9073 49.4142C35.7288 49.4142 44.081 55.6006 47.3291 64.2616C47.4838 62.8697 47.4065 61.5551 47.4065 60.3951C47.4065 60.0085 47.3291 59.6991 47.3291 59.3125C42.8437 52.1981 34.9555 47.3263 25.9073 47.3263Z" fill="white"/>
<path d="M5.25879 47.9449C5.49079 48.6409 5.80014 49.3369 6.10948 50.0328C11.3683 45.393 18.3284 42.5318 25.83 42.5318C32.4808 42.5318 38.6676 44.7744 43.6944 48.4862C43.4624 47.4809 43.3077 46.553 43.153 45.5477C38.1263 42.2998 32.1714 40.4439 25.83 40.4439C18.0191 40.3665 10.8269 43.2277 5.25879 47.9449Z" fill="white"/>
<path d="M3.55762 41.2945C3.71229 42.0678 3.78962 42.7637 4.02163 43.537C10.1311 38.8972 17.71 36.1133 25.9075 36.1133C32.0943 36.1133 37.9718 37.6599 43.0759 40.4438C43.0759 39.5932 43.1533 38.8972 43.2306 38.2012C37.9718 35.572 32.0943 34.0254 25.9075 34.0254C17.5553 34.0254 9.82177 36.732 3.55762 41.2945Z" fill="white"/>
<path d="M3.09375 33.7934C3.09375 34.5667 3.09375 35.4173 3.09375 36.268C9.66724 32.0921 17.5554 29.6176 25.9076 29.6176C32.4038 29.6176 38.5906 31.0868 44.0814 33.7161C44.3134 33.0201 44.4681 32.3241 44.7001 31.7055C38.9773 29.0762 32.6358 27.5296 25.9076 27.5296C17.5554 27.5296 9.74458 29.8495 3.09375 33.7934Z" fill="white"/>
<path d="M3.94411 25.9057C3.78944 26.7563 3.7121 27.5296 3.63477 28.3029C3.63477 28.3803 3.63477 28.3803 3.63477 28.4576C10.3629 25.0551 17.9418 23.1218 25.9846 23.1218C33.4088 23.1218 40.4463 24.7457 46.7878 27.7616C47.1745 27.143 47.5612 26.5243 47.8705 25.9057C41.2197 22.8125 33.7955 21.0339 25.9846 21.0339C18.0191 20.9566 10.5949 22.7352 3.94411 25.9057Z" fill="white"/>
<path d="M6.10966 17.8633C5.72299 18.7913 5.41365 19.6419 5.18164 20.4926C11.6005 17.9407 18.638 16.4714 25.9075 16.4714C34.2597 16.4714 42.1479 18.3273 49.2627 21.5752C49.34 21.1112 49.4174 20.5699 49.4174 19.9512C49.4174 19.7193 49.4174 19.4873 49.4174 19.2553C42.2252 16.0847 34.337 14.3061 25.9848 14.3061C18.9473 14.3835 12.2965 15.6207 6.10966 17.8633Z" fill="white"/>
<path d="M25.9076 9.4343C33.7958 9.4343 41.2973 10.9036 48.1801 13.5328C47.7934 12.4502 47.3294 11.5996 46.9428 10.8262C40.3693 8.58366 33.2544 7.26904 25.9076 7.26904C21.0355 7.26904 16.2407 7.81036 11.6779 8.89298C10.9045 9.82095 10.2085 10.7489 9.58984 11.5222C14.7713 10.1303 20.2621 9.4343 25.9076 9.4343Z" fill="white"/>
<path d="M18.7158 3.40253C21.0359 3.17053 23.4333 3.01587 25.8307 3.01587C31.2441 3.01587 36.5029 3.63452 41.607 4.87181C38.9776 2.93854 36.2709 1.93325 34.2602 1.46926C31.7081 1.15994 29.0787 1.00528 26.372 1.00528C22.7373 1.39193 20.0305 2.70655 18.7158 3.40253Z" fill="white"/>
<path d="M61.1725 41.1398C61.1725 34.8761 61.1725 33.7161 61.0951 32.4015C61.0178 31.0095 60.7085 30.3909 59.3938 30.0816C59.1618 30.0042 58.7751 30.0042 58.3884 30.0042C58.0017 29.9269 57.6924 29.9269 57.6924 29.6949C57.6924 29.4629 57.9244 29.3856 58.3111 29.3856C59.8578 29.3856 61.4045 29.5402 62.8738 29.5402C63.6472 29.5402 71.8447 29.5402 72.7728 29.4629C73.7008 29.3856 74.3968 29.3856 74.7835 29.2309C74.9381 29.1536 75.0928 29.0763 75.1701 29.0763C75.3248 29.0763 75.4022 29.2309 75.4022 29.4629C75.4022 29.6949 75.2475 30.2362 75.1701 30.7002C75.0155 31.8602 75.0155 32.5561 74.9381 33.6388C74.9381 34.1027 74.7061 34.4121 74.5515 34.4121C74.3195 34.4121 74.3195 34.2574 74.2421 33.8708C74.1648 33.3294 74.0101 32.3241 73.4688 31.8602C73.0048 31.4735 72.2314 31.1642 71.0714 31.0869C68.9833 31.0095 66.9726 31.0095 64.8846 30.9322C64.6526 30.9322 64.4979 31.0869 64.4979 31.3962V42.5318C64.4979 42.7638 64.5752 42.9184 64.8072 42.9184C66.4313 42.9184 68.7513 42.9184 70.4527 42.8411C72.6181 42.7638 73.0821 42.7638 73.7008 42.0678C73.9328 41.8358 74.0101 41.6811 74.1648 41.6811C74.3195 41.6811 74.3968 41.8358 74.3968 41.9905C74.3968 42.2224 74.1648 42.9184 74.0875 44.233C73.9328 45.4703 73.9328 46.3983 73.9328 47.0169C73.8554 47.4809 73.8554 47.7129 73.6234 47.7129C73.3914 47.7129 73.3141 47.4036 73.3141 47.0169C73.2368 46.1663 73.0821 44.697 70.994 44.465C69.9887 44.3104 65.5806 44.3104 64.8846 44.3104C64.6526 44.3104 64.5752 44.3877 64.5752 44.697V48.0996C64.5752 51.5021 64.5752 54.3633 64.7299 56.2193C64.8846 57.9979 65.2712 58.9258 66.3539 59.0805C66.8953 59.1578 67.5913 59.2352 67.978 59.2352C68.3646 59.3125 68.442 59.3898 68.442 59.5445C68.442 59.7765 68.21 59.8538 67.8233 59.8538C65.5806 59.8538 63.0285 59.6991 62.8738 59.6991H62.4872C61.7138 59.7765 59.8578 59.8538 58.9297 59.8538C58.4657 59.8538 58.3111 59.7765 58.3111 59.5445C58.3111 59.3898 58.3884 59.3125 58.7751 59.3125C59.1618 59.2352 59.5484 59.2352 59.8578 59.1578C60.7085 58.9258 61.0178 58.3072 61.0951 56.5286C61.2498 54.8273 61.2498 51.9661 61.2498 48.1769V41.1398H61.1725Z" fill="white"/>
<path d="M88.4721 41.1398C88.4721 34.876 88.4721 33.7161 88.3948 32.4015C88.3175 31.0095 87.9308 30.3135 87.0028 30.1589C86.5387 30.0042 85.9974 30.0042 85.7654 30.0042C85.6107 30.0042 85.4561 29.9269 85.4561 29.7722C85.4561 29.5402 85.6881 29.4629 86.0747 29.4629C87.3894 29.4629 89.9415 29.6176 90.1735 29.6176C90.4055 29.6176 92.9576 29.4629 94.1176 29.4629C94.5816 29.4629 94.7363 29.5402 94.7363 29.7722C94.7363 29.9269 94.5816 30.0042 94.4269 30.0042C94.1176 30.0042 93.8856 30.0815 93.4216 30.1589C92.3389 30.3909 92.0296 31.0095 91.9522 32.4788C91.8749 33.7934 91.8749 34.876 91.8749 41.2171V48.3315C91.8749 52.1981 91.8749 55.3686 92.1069 57.0699C92.2616 58.2298 92.4936 59.1578 93.6536 59.3125C94.1949 59.3898 95.0456 59.4671 95.2776 59.4671C95.6643 59.4671 95.7417 59.6218 95.7417 59.6991C95.7417 59.9311 95.587 60.0084 95.123 60.0084C92.8802 60.0084 90.3282 59.8538 90.0962 59.8538C89.8642 59.8538 87.3121 60.0084 86.1521 60.0084C85.6881 60.0084 85.5334 59.9311 85.5334 59.6991C85.5334 59.5445 85.6107 59.4671 85.9974 59.4671C86.2294 59.4671 86.6934 59.3898 87.0801 59.3125C87.8534 59.1578 88.1628 58.2298 88.3175 57.0699C88.5495 55.3686 88.5495 52.1981 88.5495 48.3315V41.1398H88.4721Z" fill="white"/>
<path d="M108.656 48.0222C108.656 33.4068 108.733 38.6652 108.733 30.8549C108.733 29.3083 108.888 28.8443 109.197 28.8443C109.507 28.8443 110.203 29.6949 110.589 30.1589C111.208 30.8549 117.24 37.3506 123.427 44.0011C127.449 48.2542 131.857 53.2034 133.094 54.518L132.63 34.0254C132.553 31.3962 132.321 30.5455 131.083 30.1589C130.387 30.0042 129.691 29.9269 129.382 29.9269C128.918 29.9269 128.841 29.7722 128.841 29.6176C128.841 29.3856 129.15 29.3083 129.614 29.3083C131.393 29.3083 133.403 29.4629 133.79 29.4629C134.254 29.4629 135.569 29.3083 137.193 29.3083C137.657 29.3083 137.889 29.3856 137.889 29.6176C137.889 29.7722 137.734 29.8496 137.425 29.9269C137.115 30.0042 136.883 30.0042 136.342 30.0816C135.182 30.3136 134.95 30.9322 134.95 33.7161L134.873 57.3019C134.873 59.9311 134.795 60.1631 134.486 60.1631C134.177 60.1631 133.713 59.6991 131.547 57.6112C131.083 57.2246 125.283 51.2701 121.03 46.6303C116.312 41.6038 111.75 36.5 110.512 35.0307L111.053 54.3633C111.131 57.6886 111.518 58.6938 112.6 59.0805C113.374 59.3125 114.224 59.3125 114.611 59.3125C114.843 59.3125 114.92 59.3898 114.92 59.5445C114.92 59.7765 114.688 59.8538 114.224 59.8538C111.904 59.8538 110.28 59.6991 109.971 59.6991C109.584 59.6991 107.883 59.8538 106.104 59.8538C105.717 59.8538 105.485 59.7765 105.485 59.5445C105.485 59.3898 105.64 59.3125 105.795 59.3125C106.104 59.3125 106.877 59.2352 107.419 59.0805C108.424 58.7712 108.656 57.6112 108.656 53.9767V48.0222Z" fill="white"/>
<path d="M153.82 48.0222C153.588 48.0222 153.511 48.1769 153.433 48.3316L151.036 55.446C150.649 56.4513 150.495 57.4566 150.495 58.1525C150.495 58.9258 151.268 59.3125 151.964 59.3125H152.351C152.737 59.3125 152.892 59.3898 152.892 59.5445C152.892 59.7765 152.505 59.8538 152.196 59.8538C151.191 59.8538 149.644 59.6991 149.18 59.6991C148.716 59.6991 146.55 59.8538 144.617 59.8538C144.076 59.8538 143.844 59.7765 143.844 59.5445C143.844 59.3898 144.076 59.3125 144.385 59.3125C144.694 59.3125 145.004 59.2352 145.39 59.2352C147.247 59.0032 148.02 57.4566 148.793 55.446L157.764 30.3909C158.228 29.0763 158.383 28.8443 158.615 28.8443C158.847 28.8443 159.001 29.0763 159.465 30.3135C160.084 31.8602 166.426 48.5635 168.9 54.6727C170.37 58.2299 171.53 58.9258 172.38 59.1578C172.999 59.3898 173.618 59.3898 173.927 59.3898C174.159 59.3898 174.391 59.4672 174.391 59.6218C174.391 59.8538 174.004 59.9311 173.618 59.9311C172.999 59.9311 170.06 59.9311 167.276 59.8538C166.503 59.7765 166.039 59.7765 166.039 59.5445C166.039 59.3898 166.194 59.3125 166.348 59.2352C166.58 59.1578 166.812 58.7712 166.58 58.1525L162.791 48.2542C162.714 48.0996 162.636 48.0222 162.404 48.0222H153.82ZM162.018 46.553C162.25 46.553 162.25 46.3983 162.172 46.2436L158.305 35.34C158.073 34.7214 157.919 34.7214 157.687 35.34L154.129 46.2436C154.052 46.4756 154.129 46.553 154.284 46.553H162.018Z" fill="white"/>
<path d="M183.981 41.1398C183.981 34.8761 183.981 33.7161 183.904 32.4015C183.826 31.0095 183.517 30.3909 182.202 30.0816C181.893 30.0042 181.429 30.0042 181.042 29.9269C180.733 29.8496 180.501 29.8496 180.501 29.6949C180.501 29.4629 180.733 29.3856 181.12 29.3856C182.048 29.3856 183.13 29.3856 185.682 29.5402C185.992 29.5402 194.035 29.5402 194.963 29.4629C195.813 29.3856 196.587 29.3083 196.819 29.2309C197.051 29.0763 197.128 29.0763 197.283 29.0763C197.437 29.0763 197.437 29.2309 197.437 29.4629C197.437 29.7722 197.205 30.2362 197.128 31.3962C197.051 32.0148 197.051 32.7881 196.973 33.7934C196.896 34.1801 196.819 34.4894 196.664 34.4894C196.432 34.4894 196.355 34.2574 196.355 33.9481C196.355 33.4068 196.277 32.9428 196.123 32.6335C195.813 31.7055 194.963 31.3188 193.184 31.1642C192.488 31.0869 188.08 31.0095 187.616 31.0095C187.461 31.0095 187.384 31.1642 187.384 31.3962V42.5318C187.384 42.8411 187.461 42.9184 187.616 42.9184C188.157 42.9184 193.107 42.9184 194.035 42.8411C195.117 42.7638 195.659 42.6091 196.045 42.1451C196.277 41.9131 196.355 41.7585 196.509 41.7585C196.664 41.7585 196.741 41.8358 196.741 42.0678C196.741 42.2998 196.509 42.9958 196.432 44.3104C196.277 45.5477 196.277 46.4756 196.277 47.0943C196.2 47.4809 196.123 47.7129 195.968 47.7129C195.736 47.7129 195.659 47.4036 195.659 47.0943C195.659 46.7076 195.581 46.321 195.504 45.9343C195.349 45.3157 194.885 44.7744 193.416 44.6197C192.333 44.465 188.312 44.3877 187.616 44.3877C187.384 44.3877 187.306 44.5424 187.306 44.697V48.2542C187.306 49.6462 187.229 54.286 187.306 55.1366C187.384 56.7606 187.616 57.6885 188.621 58.0752C189.317 58.3845 190.4 58.4619 191.947 58.4619C193.184 58.4619 194.499 58.3845 195.581 58.0752C196.896 57.6885 197.283 56.8379 197.669 55.0593C197.747 54.5953 197.824 54.4407 198.056 54.4407C198.288 54.4407 198.288 54.75 198.288 55.0593C198.288 55.3686 197.979 58.1525 197.747 59.0032C197.437 60.0858 197.128 60.0858 195.581 60.0858C192.565 60.0858 191.251 60.0085 189.704 59.9311C188.08 59.8538 186.224 59.7765 184.677 59.7765C183.672 59.7765 182.744 59.9311 181.661 59.9311C181.197 59.9311 181.042 59.8538 181.042 59.6218C181.042 59.4671 181.274 59.3898 181.506 59.3898C181.893 59.3125 182.125 59.3125 182.434 59.2352C183.285 59.0032 183.826 58.4619 183.904 55.446C183.981 53.8994 183.981 51.8114 183.981 48.2542V41.1398Z" fill="white"/>
<path d="M211.512 41.1398C211.512 34.8761 211.512 33.7161 211.435 32.4015C211.358 31.0095 211.048 30.3909 209.734 30.0816C209.424 30.0042 208.728 29.9269 208.342 29.9269C208.187 29.9269 208.032 29.8496 208.032 29.6949C208.032 29.4629 208.264 29.3856 208.651 29.3856C210.43 29.3856 212.982 29.5403 213.214 29.5403C213.678 29.5403 216.694 29.3856 218.008 29.3856C220.561 29.3856 223.267 29.6176 225.433 31.1642C226.438 31.8602 228.217 33.8708 228.217 36.6547C228.217 39.6705 226.979 42.6091 223.345 46.0117C226.67 50.2648 229.377 53.822 231.774 56.3739C233.94 58.6939 235.718 59.1578 236.724 59.3125C237.497 59.4672 238.038 59.4672 238.27 59.4672C238.502 59.4672 238.657 59.6218 238.657 59.6991C238.657 59.9311 238.425 60.0085 237.652 60.0085H234.79C232.548 60.0085 231.542 59.7765 230.459 59.2352C228.758 58.3072 227.289 56.2966 224.969 53.2807C223.267 51.0381 221.411 48.3316 220.561 47.3263C220.406 47.1716 220.251 47.0943 220.019 47.0943L215.07 47.0169C214.838 47.0169 214.76 47.1716 214.76 47.3263V48.3316C214.76 52.1981 214.76 55.3686 214.992 57.0699C215.147 58.2299 215.379 59.1578 216.539 59.3125C217.08 59.3898 218.008 59.4672 218.395 59.4672C218.627 59.4672 218.704 59.6218 218.704 59.6991C218.704 59.9311 218.472 60.0085 218.086 60.0085C215.843 60.0085 213.291 59.8538 213.136 59.8538C213.059 59.8538 210.584 60.0085 209.347 60.0085C208.883 60.0085 208.728 59.9311 208.728 59.6991C208.728 59.5445 208.806 59.4672 209.038 59.4672C209.424 59.4672 209.888 59.3898 210.275 59.3125C211.048 59.1578 211.28 58.2299 211.435 57.0699C211.667 55.3686 211.667 52.1981 211.667 48.3316V41.1398H211.512ZM214.76 44.6197C214.76 44.8517 214.838 45.0064 215.07 45.0837C215.688 45.4703 217.544 45.7023 219.323 45.7023C220.329 45.7023 221.411 45.5477 222.339 44.929C223.731 43.9237 224.814 41.7585 224.814 38.7426C224.814 33.7161 222.185 30.7002 217.854 30.7002C216.616 30.7002 215.534 30.8549 215.147 30.9322C214.915 31.0095 214.838 31.1642 214.838 31.3962V44.6197H214.76Z" fill="white"/>
<path d="M60.5538 12.5275C60.5538 10.2076 60.5538 9.74363 60.5538 9.27965C60.5538 8.73833 60.3991 8.50634 59.9351 8.42901C59.8578 8.42901 59.7031 8.42901 59.5484 8.42901C59.3937 8.42901 59.3164 8.42901 59.3164 8.35168C59.3164 8.27435 59.3937 8.19702 59.5484 8.19702C60.1671 8.19702 60.7084 8.27435 61.2498 8.27435C61.5591 8.27435 64.5752 8.27435 64.9619 8.27435C65.2712 8.27435 65.5806 8.27435 65.6579 8.19702C65.7352 8.19702 65.7352 8.11969 65.8126 8.11969C65.8899 8.11969 65.8899 8.19702 65.8899 8.27435C65.8899 8.35168 65.8126 8.58367 65.8126 8.73833C65.7352 9.20232 65.7352 9.43431 65.7352 9.82096C65.7352 9.97562 65.6579 10.1303 65.5806 10.1303C65.5032 10.1303 65.5032 10.053 65.5032 9.89829C65.5032 9.6663 65.4259 9.35698 65.1939 9.12499C65.0392 8.97033 64.7299 8.89299 64.3432 8.81566C63.5698 8.81566 62.7965 8.81566 62.0231 8.73833C61.9458 8.73833 61.8685 8.81566 61.8685 8.893V12.9915C61.8685 13.0688 61.8685 13.1462 61.9458 13.1462C62.5645 13.1462 63.4152 13.1462 64.0339 13.1462C64.8072 13.1462 65.0392 13.1462 65.1939 12.8369C65.2712 12.7595 65.2712 12.6822 65.3486 12.6822C65.4259 12.6822 65.4259 12.7595 65.4259 12.8369C65.4259 12.9142 65.3486 13.1462 65.2712 13.6875C65.1939 14.1515 65.1939 14.4608 65.1939 14.6928C65.1939 14.8474 65.1939 14.9248 65.1165 14.9248C65.0392 14.9248 65.0392 14.8474 64.9619 14.6928C64.9619 14.3835 64.8845 13.8421 64.1112 13.7648C63.7245 13.6875 62.1005 13.6875 61.8685 13.6875C61.7911 13.6875 61.7911 13.6875 61.7911 13.8421V15.0794C61.7911 16.3167 61.7911 17.3994 61.8685 18.0953C61.9458 18.7913 62.1005 19.1006 62.4872 19.178C62.7192 19.178 62.9512 19.2553 63.1058 19.2553C63.2605 19.2553 63.2605 19.3326 63.2605 19.3326C63.2605 19.4099 63.1832 19.4099 63.0285 19.4099C62.1778 19.4099 61.2498 19.3326 61.1725 19.3326H61.0951C60.7858 19.3326 60.0898 19.4099 59.7804 19.4099C59.6258 19.4099 59.5484 19.4099 59.5484 19.2553C59.5484 19.178 59.5484 19.178 59.7031 19.178C59.8578 19.178 60.0124 19.178 60.0898 19.1006C60.3991 19.0233 60.4764 18.7913 60.5538 18.0953C60.6311 17.4767 60.6311 16.3941 60.6311 15.0021V12.5275H60.5538Z" fill="white"/>
<path d="M74.0878 14.6155C74.0878 16.7807 74.5518 17.7087 75.2478 18.3273C75.9438 19.0233 76.6398 19.178 77.4905 19.178C78.4186 19.178 79.2692 18.714 79.8106 18.0953C80.5066 17.2447 80.6613 16.0074 80.6613 14.4608V12.6049C80.6613 10.2849 80.6613 9.82096 80.6613 9.35698C80.6613 8.81567 80.5066 8.58367 80.0426 8.50634C79.8879 8.50634 79.6559 8.42901 79.5012 8.42901C79.4239 8.42901 79.3466 8.42901 79.3466 8.35168C79.3466 8.27435 79.4239 8.19702 79.5786 8.19702C80.2746 8.19702 81.048 8.27435 81.1253 8.27435C81.2026 8.27435 81.8986 8.19702 82.3626 8.19702C82.5173 8.19702 82.5947 8.19702 82.5947 8.35168C82.5947 8.42901 82.5173 8.42901 82.44 8.42901C82.3626 8.42901 82.208 8.42901 82.0533 8.50634C81.6666 8.58367 81.512 8.81567 81.512 9.35698C81.512 9.82096 81.512 10.2849 81.512 12.6049V14.2288C81.512 15.8527 81.3573 17.6313 80.1199 18.714C79.0372 19.6419 77.9545 19.7966 77.0265 19.7966C76.4852 19.7966 75.0158 19.7193 73.9331 18.714C73.2371 18.018 72.6184 16.9354 72.6184 14.7701V12.6049C72.6184 10.2849 72.6184 9.82096 72.6184 9.35698C72.6184 8.81567 72.4637 8.58367 71.9997 8.50634C71.8451 8.50634 71.6131 8.42901 71.4584 8.42901C71.381 8.42901 71.3037 8.42901 71.3037 8.35168C71.3037 8.27435 71.381 8.19702 71.5357 8.19702C72.2317 8.19702 73.1598 8.27435 73.2371 8.27435C73.3918 8.27435 74.2425 8.19702 74.7065 8.19702C74.8611 8.19702 74.9385 8.19702 74.9385 8.35168C74.9385 8.42901 74.8611 8.42901 74.7838 8.42901C74.7065 8.42901 74.5518 8.42901 74.3971 8.50634C74.2424 8.50634 74.0878 8.81567 74.0878 9.27965C74.0878 9.74363 74.0878 10.2076 74.0878 12.5275V14.6155Z" fill="white"/>
<path d="M89.7089 15.0794C89.7089 9.6663 89.7089 11.5996 89.7089 8.73833C89.7089 8.11969 89.7862 7.96503 89.8635 7.96503C89.9409 7.96503 90.2502 8.27435 90.4049 8.42901C90.6369 8.661 92.8796 11.0582 95.1223 13.5328C96.5917 15.0794 98.2157 16.9354 98.6797 17.3993L98.5251 9.82096C98.5251 8.81566 98.3704 8.50634 97.9064 8.42901C97.6744 8.35168 97.3651 8.35168 97.2877 8.35168C97.133 8.35168 97.0557 8.27435 97.0557 8.27435C97.0557 8.19702 97.2104 8.19702 97.3651 8.19702C98.0611 8.19702 98.7571 8.27435 98.9118 8.27435C99.0664 8.27435 99.6078 8.19702 100.149 8.19702C100.304 8.19702 100.381 8.19702 100.381 8.27435C100.381 8.35168 100.304 8.35168 100.226 8.35168C100.072 8.35168 99.9945 8.35168 99.8398 8.42901C99.4531 8.50634 99.2984 8.73833 99.2984 9.74363V18.482C99.2984 19.4873 99.2984 19.5646 99.1438 19.5646C98.9891 19.5646 98.8344 19.4099 98.0611 18.6366C97.9064 18.482 95.741 16.3167 94.1943 14.6154C92.4929 12.7595 90.7916 10.8263 90.3275 10.3623L90.5595 17.554C90.5595 18.7913 90.7142 19.1779 91.1782 19.2553C91.4876 19.3326 91.7969 19.3326 91.9516 19.3326C92.0289 19.3326 92.1062 19.3326 92.1062 19.4099C92.1062 19.4873 92.0289 19.5646 91.8742 19.5646C91.0236 19.5646 90.4049 19.4873 90.2502 19.4873C90.0955 19.4873 89.4769 19.5646 88.7808 19.5646C88.6262 19.5646 88.5488 19.5646 88.5488 19.4099C88.5488 19.3326 88.6262 19.3326 88.7035 19.3326C88.8582 19.3326 89.0902 19.3326 89.3222 19.2553C89.7089 19.1779 89.7862 18.714 89.7862 17.322V15.0794H89.7089Z" fill="white"/>
<path d="M108.579 12.5275C108.579 10.2076 108.579 9.74364 108.579 9.27966C108.579 8.73835 108.502 8.50636 107.961 8.42902C107.806 8.42902 107.574 8.35169 107.419 8.35169C107.342 8.35169 107.265 8.35169 107.265 8.27436C107.265 8.19703 107.342 8.1197 107.497 8.1197C108.193 8.1197 109.121 8.19703 109.198 8.19703C109.353 8.19703 110.281 8.1197 111.209 8.1197C112.678 8.1197 115.462 7.96504 117.241 9.82097C118.014 10.5943 118.71 11.8316 118.71 13.6102C118.71 15.4661 117.937 16.9354 117.086 17.8633C116.468 18.5593 115.076 19.5646 112.523 19.5646C111.905 19.5646 111.054 19.4873 110.435 19.4873C109.739 19.41 109.275 19.41 109.198 19.41C109.198 19.41 108.889 19.41 108.579 19.41C108.27 19.41 107.961 19.41 107.729 19.41C107.574 19.41 107.497 19.41 107.497 19.2553C107.497 19.178 107.497 19.178 107.651 19.178C107.806 19.178 107.961 19.178 108.038 19.1006C108.347 19.0233 108.425 18.714 108.502 18.25C108.579 17.6314 108.579 16.4714 108.579 15.0021V12.5275ZM109.817 14.1515C109.817 15.6981 109.817 17.09 109.817 17.3994C109.817 17.786 109.894 18.4047 109.971 18.5593C110.203 18.8686 110.745 19.178 112.523 19.178C113.915 19.178 115.23 18.6367 116.081 17.786C116.854 17.0127 117.241 15.6208 117.241 14.2288C117.241 12.2955 116.39 11.1356 115.772 10.4396C114.379 8.97034 112.678 8.73835 110.899 8.73835C110.59 8.73835 110.049 8.81568 109.894 8.81568C109.739 8.89301 109.739 8.97034 109.739 9.125C109.739 9.66631 109.739 11.1356 109.739 12.2955V14.1515H109.817Z" fill="white"/>
<path d="M127.217 15.0794C127.14 15.0794 127.062 15.1568 127.062 15.2341L126.134 17.8633C125.98 18.25 125.902 18.5593 125.902 18.8686C125.902 19.178 126.212 19.3326 126.444 19.3326H126.598C126.753 19.3326 126.83 19.3326 126.83 19.4099C126.83 19.4873 126.676 19.5646 126.598 19.5646C126.212 19.5646 125.67 19.4873 125.438 19.4873C125.284 19.4873 124.433 19.5646 123.737 19.5646C123.505 19.5646 123.428 19.5646 123.428 19.4099C123.428 19.3326 123.505 19.3326 123.66 19.3326C123.737 19.3326 123.892 19.3326 124.046 19.3326C124.742 19.2553 125.052 18.6366 125.284 17.9407L128.687 8.661C128.841 8.19702 128.919 8.04236 128.996 8.04236C129.073 8.04236 129.151 8.11969 129.305 8.58367C129.537 9.12499 131.857 15.3114 132.785 17.6313C133.327 18.946 133.791 19.178 134.1 19.2553C134.332 19.3326 134.564 19.3326 134.719 19.3326C134.796 19.3326 134.873 19.3326 134.873 19.4099C134.873 19.4873 134.719 19.5646 134.564 19.5646C134.332 19.5646 133.249 19.5646 132.244 19.5646C131.935 19.5646 131.78 19.5646 131.78 19.4873C131.78 19.4099 131.857 19.4099 131.857 19.4099C131.935 19.4099 132.012 19.2553 131.935 19.0233L130.543 15.3114C130.543 15.2341 130.465 15.2341 130.388 15.2341H127.217V15.0794ZM130.233 14.5381C130.311 14.5381 130.311 14.4608 130.311 14.4608L128.919 10.4396C128.841 10.2076 128.764 10.2076 128.687 10.4396L127.372 14.4608C127.372 14.5381 127.372 14.5381 127.449 14.5381H130.233Z" fill="white"/>
<path d="M141.291 18.0953C139.822 16.7807 139.513 15.0794 139.513 13.6875C139.513 12.6822 139.822 10.9036 141.214 9.58897C142.142 8.661 143.457 7.96503 145.777 7.96503C146.396 7.96503 147.246 8.04236 147.942 8.11969C148.484 8.19702 148.948 8.27435 149.566 8.35168C149.644 8.35168 149.721 8.42901 149.721 8.50634C149.721 8.661 149.644 8.81566 149.644 9.35698C149.644 9.82096 149.644 10.6716 149.566 10.9036C149.566 11.1356 149.489 11.2129 149.412 11.2129C149.334 11.2129 149.257 11.1356 149.257 10.9036C149.257 10.2849 149.025 9.74363 148.638 9.35698C148.097 8.89299 146.937 8.50634 145.622 8.50634C143.611 8.50634 142.683 9.12498 142.219 9.58897C141.137 10.6716 140.905 11.9862 140.905 13.4555C140.905 16.3167 143.07 18.946 146.318 18.946C147.478 18.946 148.329 18.7913 148.948 18.1727C149.257 17.8633 149.489 17.1674 149.489 16.9354C149.489 16.7807 149.566 16.7034 149.644 16.7034C149.721 16.7034 149.721 16.7807 149.721 16.9354C149.721 17.0127 149.566 18.3273 149.412 18.8686C149.334 19.1779 149.257 19.1779 149.025 19.3326C148.406 19.5646 147.324 19.6419 146.318 19.6419C143.921 19.7193 142.451 19.1779 141.291 18.0953Z" fill="white"/>
<path d="M157.068 12.5275C157.068 10.2076 157.068 9.74363 157.068 9.27965C157.068 8.73833 156.914 8.50634 156.527 8.42901C156.372 8.35168 156.14 8.35168 156.063 8.35168C155.986 8.35168 155.908 8.35168 155.908 8.27435C155.908 8.19702 155.986 8.11969 156.14 8.11969C156.604 8.11969 157.61 8.19702 157.687 8.19702C157.764 8.19702 158.692 8.11969 159.156 8.11969C159.311 8.11969 159.388 8.11969 159.388 8.27435C159.388 8.35168 159.311 8.35168 159.234 8.35168C159.156 8.35168 159.002 8.35168 158.847 8.42901C158.46 8.50634 158.306 8.73833 158.306 9.27965C158.306 9.74363 158.306 10.2076 158.306 12.5275V15.1568C158.306 16.626 158.306 17.786 158.383 18.4046C158.46 18.8686 158.538 19.178 159.002 19.2553C159.234 19.2553 159.543 19.3326 159.62 19.3326C159.775 19.3326 159.775 19.4099 159.775 19.4099C159.775 19.4873 159.698 19.5646 159.543 19.5646C158.692 19.5646 157.764 19.4873 157.687 19.4873C157.61 19.4873 156.682 19.5646 156.218 19.5646C156.063 19.5646 155.986 19.5646 155.986 19.4099C155.986 19.3326 155.986 19.3326 156.14 19.3326C156.218 19.3326 156.372 19.3326 156.527 19.2553C156.836 19.178 156.914 18.8686 156.991 18.4046C157.068 17.786 157.068 16.626 157.068 15.1568V12.5275Z" fill="white"/>
<path d="M165.962 13.8421C165.962 11.4449 167.741 7.96502 171.839 7.96502C175.165 7.96502 177.717 10.0529 177.717 13.6101C177.717 16.9354 175.319 19.7193 171.762 19.7193C167.663 19.7193 165.962 16.5487 165.962 13.8421ZM176.247 13.9968C176.247 10.4396 174.082 8.50633 171.685 8.50633C169.21 8.50633 167.354 10.1303 167.354 13.4555C167.354 16.9354 169.442 19.1779 172.149 19.1779C173.463 19.1779 176.247 18.4046 176.247 13.9968ZM174.005 5.8771C174.082 6.03176 174.005 6.10909 173.927 6.10909C173.85 6.10909 173.541 6.10909 173.309 6.26375C172.535 6.49574 171.685 6.95972 171.221 7.19172C171.143 7.26905 170.989 7.26905 170.989 7.26905C170.989 7.26905 170.911 7.26905 170.911 7.19172C170.911 7.11439 170.989 7.11439 171.066 7.03706C171.453 6.6504 172.535 5.72244 172.922 5.49044C173.154 5.33578 173.309 5.25845 173.386 5.25845C173.463 5.25845 173.541 5.25845 173.618 5.41311C173.618 5.41311 173.85 5.56778 174.005 5.8771Z" fill="white"/>
<path d="M184.909 15.0794C184.909 9.6663 184.909 11.5996 184.909 8.73833C184.909 8.11969 184.986 7.96503 185.064 7.96503C185.218 7.96503 185.45 8.27435 185.605 8.42901C185.837 8.661 188.08 11.0582 190.322 13.5328C191.792 15.0794 193.416 16.9354 193.88 17.3993L193.725 9.82096C193.725 8.81566 193.57 8.50634 193.106 8.42901C192.874 8.35168 192.565 8.35168 192.488 8.35168C192.333 8.35168 192.256 8.27435 192.256 8.27435C192.256 8.19702 192.41 8.19702 192.565 8.19702C193.261 8.19702 193.957 8.27435 194.112 8.27435C194.266 8.27435 194.73 8.19702 195.349 8.19702C195.504 8.19702 195.658 8.19702 195.658 8.27435C195.658 8.35168 195.581 8.35168 195.504 8.35168C195.349 8.35168 195.272 8.35168 195.117 8.42901C194.73 8.50634 194.576 8.73833 194.576 9.74363V18.482C194.576 19.4873 194.576 19.5646 194.421 19.5646C194.266 19.5646 194.112 19.4099 193.338 18.6366C193.184 18.482 191.018 16.3167 189.472 14.6154C187.77 12.7595 186.069 10.8263 185.605 10.3623L185.837 17.554C185.837 18.7913 185.992 19.1779 186.456 19.2553C186.765 19.3326 187.074 19.3326 187.229 19.3326C187.306 19.3326 187.384 19.3326 187.384 19.4099C187.384 19.4873 187.306 19.5646 187.074 19.5646C186.224 19.5646 185.605 19.4873 185.528 19.4873C185.373 19.4873 184.754 19.5646 184.058 19.5646C183.904 19.5646 183.826 19.5646 183.826 19.4099C183.826 19.3326 183.904 19.3326 183.981 19.3326C184.136 19.3326 184.368 19.3326 184.6 19.2553C184.986 19.1779 185.064 18.714 185.064 17.322V15.0794H184.909Z" fill="white"/>
</svg>
